<?xml version="1.0" encoding="UTF-8" standalone="no"?>
<!-- Created with Inkscape (http://www.inkscape.org/) -->
<svg
   xmlns:dc="http://purl.org/dc/elements/1.1/"
   xmlns:cc="http://creativecommons.org/ns#"
   xmlns:rdf="http://www.w3.org/1999/02/22-rdf-syntax-ns#"
   xmlns:svg="http://www.w3.org/2000/svg"
   xmlns="http://www.w3.org/2000/svg"
   xmlns:sodipodi="http://sodipodi.sourceforge.net/DTD/sodipodi-0.dtd"
   xmlns:inkscape="http://www.inkscape.org/namespaces/inkscape"
   id="svg2403"
   sodipodi:version="0.32"
   inkscape:version="0.46"
   width="765"
   height="990"
   xml:space="preserve"
   sodipodi:docname="correlator.svg"
   inkscape:output_extension="org.inkscape.output.svg.inkscape"><metadata
     id="metadata2408"><rdf:RDF><cc:Work
         rdf:about=""><dc:format>image/svg+xml</dc:format><dc:type
           rdf:resource="http://purl.org/dc/dcmitype/StillImage" /></cc:Work></rdf:RDF></metadata><defs
     id="defs2406"><inkscape:perspective
       sodipodi:type="inkscape:persp3d"
       inkscape:vp_x="0 : 526.18109 : 1"
       inkscape:vp_y="0 : 1000 : 0"
       inkscape:vp_z="744.09448 : 526.18109 : 1"
       inkscape:persp3d-origin="372.04724 : 350.78739 : 1"
       id="perspective2410" /><clipPath
       clipPathUnits="userSpaceOnUse"
       id="clipPath2420"><path
         d="M 0,0 L 3000,0 L 3000,490 L 0,490 L 0,0 z"
         id="path2422" /></clipPath></defs><sodipodi:namedview
     inkscape:window-height="713"
     inkscape:window-width="640"
     inkscape:pageshadow="2"
     inkscape:pageopacity="0.0"
     guidetolerance="10.0"
     gridtolerance="10.0"
     objecttolerance="10.0"
     borderopacity="1.0"
     bordercolor="#666666"
     pagecolor="#ffffff"
     id="base"
     showgrid="false"
     inkscape:zoom="0.52323232"
     inkscape:cx="153.15637"
     inkscape:cy="112.76062"
     inkscape:window-x="0"
     inkscape:window-y="22"
     inkscape:current-layer="g2412" /><g
     id="g2412"
     inkscape:groupmode="layer"
     inkscape:label="correlator"
     transform="matrix(1.25,0,0,-1.25,0,990)"><g
       id="g2414"
       transform="scale(0.1,0.1)"><g
         id="g2416"><g
           id="g2418"
           clip-path="url(#clipPath2420)"><path
             d="M 269.578,409.41 C 269.578,410.48 268.801,413.012 265.578,413.012 C 264.512,413.012 264.148,412.648 260.211,408.691 L 235.121,380.941 C 231.891,385.988 215.41,413.02 175.609,413.02 C 95.6719,413.02 15.0117,333.66 15.0117,250.379 C 15.0117,191.148 57.3086,152.012 112.16,152.012 C 143.352,152.012 170.59,166.371 189.59,182.891 C 222.93,212.328 229.059,245 229.059,246.07 C 229.059,249.68 225.48,249.68 224.762,249.68 C 222.609,249.68 220.82,248.949 220.109,246.07 C 216.891,235.641 208.66,210.121 183.969,189.27 C 159.281,169.141 136.738,163.02 118.141,163.02 C 85.9414,163.02 48.0195,181.711 48.0195,237.77 C 48.0195,258.25 55.5312,316.469 91.3203,358.512 C 113.148,384.031 146.789,402.031 178.641,402.031 C 215.141,402.031 236.262,374.328 236.262,332.602 C 236.262,318.211 235.191,317.852 235.191,314.262 C 235.191,310.66 239.129,310.66 240.559,310.66 C 245.211,310.66 245.211,311.379 247,317.84"
             style="fill:#000000;fill-opacity:1;fill-rule:nonzero;stroke:none"
             id="path2424" /><path
             d="M 449.551,268.23 C 451.551,270.23 453.059,271.98 453.059,275.238 C 453.059,277.988 451.051,277.988 446.301,277.988 L 329.691,277.988 C 323.199,277.988 322.949,277.73 321.449,273 L 307.469,228.191 C 306.469,225.199 306.469,224.949 306.469,224.211 C 306.469,222.961 307.469,220.73 310.711,220.73 C 313.961,220.73 314.461,222.219 315.211,224.711 C 327.199,259.789 346.672,269 378.891,269 L 423.84,269 L 278.262,118.02 C 276.512,116.27 274.02,113.77 274.02,109.762 C 274.02,107.012 276.27,107.012 280.762,107.012 L 401.621,107.012 C 408.109,107.012 408.359,107.262 409.859,112.031 L 427.84,168.02 C 428.84,171.281 428.84,171.789 428.84,172.039 C 428.84,172.289 428.84,175.559 424.84,175.559 C 421.59,175.559 421.102,174.539 419.352,169.02 C 407.871,134.609 395.129,117.031 351.68,117.031 L 303.988,117.031"
             style="fill:#000000;fill-opacity:1;fill-rule:nonzero;stroke:none"
             id="path2426" /><path
             d="M 602.711,73.5898 C 602.711,74.6602 602.711,75.3789 596.57,81.4805 C 551.52,126.699 539.988,194.539 539.988,249.449 C 539.988,311.898 553.691,374.359 598.012,419.219 C 602.711,423.52 602.711,424.238 602.711,425.32 C 602.711,427.828 601.262,428.98 599.09,428.98 C 595.48,428.98 563.012,404.5 541.719,358.91 C 523.309,319.43 518.988,279.59 518.988,249.441 C 518.988,221.449 522.961,178.02 542.809,137.461 C 564.461,93.3086 595.488,69.9805 599.102,69.9805 C 601.27,69.9805 602.719,71.0586 602.719,73.5703"
             style="fill:#000000;fill-opacity:1;fill-rule:nonzero;stroke:none"
             id="path2428" /><path
             d="M 808.07,405.031 C 808.07,405.391 808.07,409 803.391,409 C 798.031,409 764.09,405.789 758.02,405.07 C 755.16,404.711 753.02,402.93 753.02,398.281 C 753.02,393.988 756.23,393.988 761.59,393.988 C 778.738,393.988 779.449,391.469 779.449,387.879 L 778.379,380.699 L 756.949,295.578 C 750.52,309.121 740.16,319.012 724.078,319.012 C 682.281,319.012 637.98,266.09 637.98,213.578 C 637.98,179.77 657.629,156.031 685.5,156.031 C 692.641,156.031 710.512,157.461 731.949,182.969 C 734.809,167.879 747.309,156.031 764.461,156.031 C 776.961,156.031 785.18,164.281 790.898,175.77 C 796.969,188.691 801.621,210.59 801.621,211.301 C 801.621,214.891 798.41,214.891 797.328,214.891 C 793.762,214.891 793.398,213.449 792.328,208.43 C 786.262,185.148 779.828,164.02 765.18,164.02 C 755.539,164.02 754.461,173.34 754.461,180.52 C 754.461,189.129 755.172,191.641 756.602,197.73 L 808.07,405.031 z M 733.488,202.82 C 731.699,196.352 731.699,195.629 726.328,189.52 C 710.578,169.75 695.91,164 685.891,164 C 668,164 662.98,183.77 662.98,197.781 C 662.98,215.738 674.43,259.949 682.66,276.48 C 693.75,297.68 709.859,310.98 724.172,310.98 C 747.43,310.98 752.461,281.512 752.461,279.352 C 752.461,277.191 751.73,275.039 751.371,273.238"
             style="fill:#000000;fill-opacity:1;fill-rule:nonzero;stroke:none"
             id="path2430" /><path
             d="M 913.988,249.461 C 913.988,277.461 910.02,320.891 890.211,361.441 C 868.609,405.578 837.641,428.988 834.039,428.988 C 831.879,428.988 830.441,427.48 830.441,425.328 C 830.441,424.25 830.441,423.531 837.27,417.078 C 872.488,381.539 892.98,324.48 892.98,249.461 C 892.98,188.09 879.672,124.922 835.109,79.6914 C 830.441,75.3789 830.441,74.6602 830.441,73.5898 C 830.441,71.4297 831.879,70 834.039,70 C 837.641,70 870.051,94.4102 891.289,139.988 C 909.648,179.469 913.988,219.309 913.988,249.461"
             style="fill:#000000;fill-opacity:1;fill-rule:nonzero;stroke:none"
             id="path2432" /><path
             d="M 1294.86,276.988 C 1300.23,276.988 1307.07,276.988 1307.07,283.988 C 1307.07,290.988 1300.23,290.988 1295.22,290.988 L 1080.81,290.988 C 1075.8,290.988 1069,290.988 1069,283.988 C 1069,276.988 1075.8,276.988 1081.17,276.988 L 1294.86,276.988 z M 1295.22,207.988 C 1300.23,207.988 1307.07,207.988 1307.07,214.988 C 1307.07,221.988 1300.23,221.988 1294.86,221.988 L 1081.16,221.988 C 1075.79,221.988 1068.99,221.988 1068.99,214.988 C 1068.99,207.988 1075.79,207.988 1080.8,207.988"
             style="fill:#000000;fill-opacity:1;fill-rule:nonzero;stroke:none"
             id="path2434" /><path
             d="M 1553.93,42.8906 C 1556.45,37.1602 1557.52,35.0117 1561.83,35.0117 C 1565.79,35.0117 1569.04,38.2305 1569.04,42.1719 C 1569.04,42.5312 1569.04,44.3203 1566.89,48.9805 L 1478.3,249.988 L 1566.89,451 C 1569.04,455.66 1569.04,457.449 1569.04,457.809 C 1569.04,461.75 1565.79,465.02 1561.83,465.02 C 1557.16,465.02 1556.08,462.109 1553.93,457.449 L 1465.17,256.801 C 1463.01,252.141 1463.01,250.352 1463.01,249.988 C 1463.01,249.629 1463.01,247.84 1465.17,243.18"
             style="fill:#000000;fill-opacity:1;fill-rule:nonzero;stroke:none"
             id="path2436" /><path
             d="M 1782.78,294 C 1787.44,294 1800.35,294 1800.35,306.309 C 1800.35,315 1792.83,315 1786.39,315 L 1704.78,315 C 1650.73,315 1610.99,255.641 1610.99,212.84 C 1610.99,181.18 1632.03,156.012 1664.47,156.012 C 1706.54,156.012 1753.99,199.48 1753.99,254.809 C 1753.99,260.922 1753.99,278.16 1743.32,294 L 1782.78,294 z M 1664.71,164.012 C 1647.25,164.012 1633,176.941 1633,202.781 C 1633,213.551 1637.27,242.988 1649.75,264.172 C 1664.71,288.941 1686.09,294 1698.2,294 C 1728.13,294 1730.99,270.281 1730.99,259.148 C 1730.99,242.281 1723.85,212.84 1711.74,194.531 C 1697.85,173.352 1678.61,164.012 1664.71,164.012"
             style="fill:#000000;fill-opacity:1;fill-rule:nonzero;stroke:none"
             id="path2438" /><path
             d="M 2011.55,470.23 C 2013.55,472.23 2015.06,473.98 2015.06,477.238 C 2015.06,479.988 2013.05,479.988 2008.3,479.988 L 1891.69,479.988 C 1885.2,479.988 1884.95,479.73 1883.45,475 L 1869.47,430.191 C 1868.47,427.199 1868.47,426.949 1868.47,426.211 C 1868.47,424.961 1869.47,422.73 1872.71,422.73 C 1875.96,422.73 1876.46,424.219 1877.21,426.711 C 1889.2,461.789 1908.67,471 1940.89,471 L 1985.84,471 L 1840.26,320.02 C 1838.51,318.27 1836.02,315.77 1836.02,311.762 C 1836.02,309.012 1838.27,309.012 1842.76,309.012 L 1963.62,309.012 C 1970.11,309.012 1970.36,309.262 1971.86,314.031 L 1989.84,370.02 C 1990.84,373.281 1990.84,373.789 1990.84,374.039 C 1990.84,374.289 1990.84,377.559 1986.84,377.559 C 1983.59,377.559 1983.1,376.539 1981.35,371.02 C 1969.87,336.609 1957.13,319.031 1913.68,319.031 L 1865.99,319.031"
             style="fill:#000000;fill-opacity:1;fill-rule:nonzero;stroke:none"
             id="path2440" /><path
             d="M 1883.34,228.609 C 1883.34,232.57 1880.32,238.012 1873.3,238.012 C 1866.52,238.012 1859.24,231.578 1859.24,224.398 C 1859.24,220.199 1862.5,215 1869.28,215 C 1876.56,215 1883.34,221.93 1883.34,228.609 z M 1832.25,101.121 C 1831.25,97.8281 1830,94.8008 1830,90.5 C 1830,78.6094 1840.02,69 1853.79,69 C 1878.83,69 1889.87,104.039 1889.87,107.852 C 1889.87,111.16 1886.58,111.16 1885.83,111.16 C 1882.3,111.16 1882.05,109.621 1881.04,106.82 C 1875.24,86.4414 1864.15,76 1854.31,76 C 1849.27,76 1848.01,79.2891 1848.01,84.8516 C 1848.01,90.6719 1849.78,95.4688 1852.05,101.039 C 1854.57,107.871 1857.35,114.699 1860.13,121.27 C 1862.4,127.34 1871.49,150.352 1872.5,153.391 C 1873.26,155.922 1874.02,158.949 1874.02,161.48 C 1874.02,173.359 1863.97,183 1850.18,183 C 1825.35,183 1813.81,148.621 1813.81,144.32 C 1813.81,141.031 1817.35,141.031 1818.1,141.031 C 1821.64,141.031 1821.89,142.301 1822.65,145.078 C 1829.22,166.859 1840.34,175.98 1849.69,175.98 C 1853.73,175.98 1856.01,173.941 1856.01,167.109 C 1856.01,161.289 1854.46,157.5 1848.02,141.82"
             style="fill:#000000;fill-opacity:1;fill-rule:nonzero;stroke:none"
             id="path2442" /><path
             d="M 2231.78,294 C 2236.44,294 2249.35,294 2249.35,306.309 C 2249.35,315 2241.83,315 2235.39,315 L 2153.78,315 C 2099.73,315 2059.99,255.641 2059.99,212.84 C 2059.99,181.18 2081.03,156.012 2113.47,156.012 C 2155.54,156.012 2202.99,199.48 2202.99,254.809 C 2202.99,260.922 2202.99,278.16 2192.32,294 L 2231.78,294 z M 2113.71,164.012 C 2096.25,164.012 2082,176.941 2082,202.781 C 2082,213.551 2086.27,242.988 2098.75,264.172 C 2113.71,288.941 2135.09,294 2147.2,294 C 2177.13,294 2179.99,270.281 2179.99,259.148 C 2179.99,242.281 2172.85,212.84 2160.74,194.531 C 2146.85,173.352 2127.61,164.012 2113.71,164.012"
             style="fill:#000000;fill-opacity:1;fill-rule:nonzero;stroke:none"
             id="path2444" /><path
             d="M 2460.55,470.23 C 2462.55,472.23 2464.06,473.98 2464.06,477.238 C 2464.06,479.988 2462.05,479.988 2457.3,479.988 L 2340.69,479.988 C 2334.2,479.988 2333.95,479.73 2332.45,475 L 2318.47,430.191 C 2317.47,427.199 2317.47,426.949 2317.47,426.211 C 2317.47,424.961 2318.47,422.73 2321.71,422.73 C 2324.96,422.73 2325.46,424.219 2326.21,426.711 C 2338.2,461.789 2357.67,471 2389.89,471 L 2434.84,471 L 2289.26,320.02 C 2287.51,318.27 2285.02,315.77 2285.02,311.762 C 2285.02,309.012 2287.27,309.012 2291.76,309.012 L 2412.62,309.012 C 2419.11,309.012 2419.36,309.262 2420.86,314.031 L 2438.84,370.02 C 2439.84,373.281 2439.84,373.789 2439.84,374.039 C 2439.84,374.289 2439.84,377.559 2435.84,377.559 C 2432.59,377.559 2432.1,376.539 2430.35,371.02 C 2418.87,336.609 2406.13,319.031 2362.68,319.031 L 2314.99,319.031"
             style="fill:#000000;fill-opacity:1;fill-rule:nonzero;stroke:none"
             id="path2446" /><path
             d="M 2332.34,228.609 C 2332.34,232.57 2329.32,238.012 2322.3,238.012 C 2315.52,238.012 2308.24,231.578 2308.24,224.398 C 2308.24,220.199 2311.5,215 2318.28,215 C 2325.56,215 2332.34,221.93 2332.34,228.609 z M 2281.25,101.121 C 2280.25,97.8281 2279,94.8008 2279,90.5 C 2279,78.6094 2289.02,69 2302.79,69 C 2327.83,69 2338.87,104.039 2338.87,107.852 C 2338.87,111.16 2335.58,111.16 2334.83,111.16 C 2331.3,111.16 2331.05,109.621 2330.04,106.82 C 2324.24,86.4414 2313.15,76 2303.31,76 C 2298.27,76 2297.01,79.2891 2297.01,84.8516 C 2297.01,90.6719 2298.78,95.4688 2301.05,101.039 C 2303.57,107.871 2306.35,114.699 2309.13,121.27 C 2311.4,127.34 2320.49,150.352 2321.5,153.391 C 2322.26,155.922 2323.02,158.949 2323.02,161.48 C 2323.02,173.359 2312.97,183 2299.18,183 C 2274.35,183 2262.81,148.621 2262.81,144.32 C 2262.81,141.031 2266.35,141.031 2267.1,141.031 C 2270.64,141.031 2270.89,142.301 2271.65,145.078 C 2278.22,166.859 2289.34,175.98 2298.69,175.98 C 2302.73,175.98 2305.01,173.941 2305.01,167.109 C 2305.01,161.289 2303.46,157.5 2297.02,141.82"
             style="fill:#000000;fill-opacity:1;fill-rule:nonzero;stroke:none"
             id="path2448" /><path
             d="M 2468,128.988 L 2545.03,128.988 C 2548.3,128.988 2554.35,128.988 2554.35,134.871 C 2554.35,141 2548.56,141 2545.03,141 L 2468,141 L 2468,217.738 C 2468,220.988 2468,227.012 2462.12,227.012 C 2456,227.012 2456,221.238 2456,217.738 L 2456,141 L 2378.87,141 C 2375.6,141 2369.58,141 2369.58,135.121 C 2369.58,129 2375.36,129 2378.87,129 L 2456,129 L 2456,51.3711 C 2456,48.0781 2456,42.0117 2461.88,42.0117 C 2468.01,42.0117 2468.01,47.8203 2468.01,51.3711"
             style="fill:#000000;fill-opacity:1;fill-rule:nonzero;stroke:none"
             id="path2450" /><path
             d="M 2715.32,238.43 C 2715.57,238.93 2716.36,242.199 2716.36,242.449 C 2716.36,243.711 2715.32,246 2712.3,246 C 2707.27,246 2686.39,243.961 2680.09,243.449 C 2678.08,243.199 2674.55,242.941 2674.55,237.578 C 2674.55,234.012 2678.07,234.012 2681.09,234.012 C 2693.17,234.012 2693.17,232.25 2693.17,230.25 C 2693.17,228.5 2692.67,227.012 2692.16,224.77 L 2677.82,167.922 C 2672.53,176.359 2663.98,183.02 2651.9,183.02 C 2619.7,183.02 2586.99,147.359 2586.99,110.969 C 2586.99,86.4609 2603.35,69.0195 2624.98,69.0195 C 2638.57,69.0195 2650.64,77.0195 2660.71,87.0781 C 2665.49,71.6016 2680.08,69.0195 2686.62,69.0195 C 2695.68,69.0195 2701.97,74.6094 2706.5,82.4805 C 2712.04,92.3789 2715.3,106.859 2715.3,107.871 C 2715.3,111.18 2712.03,111.18 2711.27,111.18 C 2707.75,111.18 2707.5,110.16 2705.73,103.281 C 2702.71,91.0508 2697.93,76.0195 2687.36,76.0195 C 2680.82,76.0195 2679.06,81.5508 2679.06,88.3398 C 2679.06,93.1211 2679.56,95.3789 2680.32,98.6484 L 2715.32,238.43 z M 2661.75,103.09 C 2659.98,96 2654.4,90.9414 2648.82,86.1289 C 2646.54,84.1094 2636.4,76.0117 2625.5,76.0117 C 2616.12,76.0117 2607,82.5898 2607,100.559 C 2607,113.98 2614.35,141.82 2620.18,151.949 C 2631.84,172.199 2644.77,176 2651.86,176 C 2669.6,176 2674.42,156.762 2674.42,153.98 C 2674.42,152.969 2673.91,151.191 2673.65,150.441"
             style="fill:#000000;fill-opacity:1;fill-rule:nonzero;stroke:none"
             id="path2452" /><path
             d="M 2871.83,243.18 C 2874.01,247.84 2874.01,249.629 2874.01,249.988 C 2874.01,250.352 2874.01,252.141 2871.83,256.801 L 2783.07,457.09 C 2780.55,462.82 2779.48,465.02 2775.17,465.02 C 2771.21,465.02 2767.98,461.75 2767.98,457.809 C 2767.98,457.449 2767.98,455.66 2770.13,451 L 2858.72,249.988 L 2770.13,48.9805 C 2767.98,44.3203 2767.98,42.5312 2767.98,42.1719 C 2767.98,38.2305 2771.21,35.0117 2775.17,35.0117 C 2779.84,35.0117 2780.92,37.8711 2783.07,42.5312"
             style="fill:#000000;fill-opacity:1;fill-rule:nonzero;stroke:none"
             id="path2454" /><path
             d="M 2990.34,173.609 C 2990.34,177.57 2987.32,183.012 2980.3,183.012 C 2973.52,183.012 2966.24,176.578 2966.24,169.398 C 2966.24,165.199 2969.5,160 2976.28,160 C 2983.56,160 2990.34,166.93 2990.34,173.609 z M 2939.25,46.1211 C 2938.25,42.8281 2937,39.8008 2937,35.5 C 2937,23.6094 2947.02,14 2960.79,14 C 2985.83,14 2996.87,49.0391 2996.87,52.8516 C 2996.87,56.1602 2993.58,56.1602 2992.83,56.1602 C 2989.3,56.1602 2989.05,54.6211 2988.04,51.8203 C 2982.24,31.4414 2971.15,21 2961.31,21 C 2956.27,21 2955.01,24.2891 2955.01,29.8516 C 2955.01,35.6719 2956.78,40.4688 2959.05,46.0391 C 2961.57,52.8711 2964.35,59.6992 2967.13,66.2695 C 2969.4,72.3398 2978.49,95.3516 2979.5,98.3906 C 2980.26,100.922 2981.02,103.949 2981.02,106.48 C 2981.02,118.359 2970.97,128 2957.18,128 C 2932.35,128 2920.81,93.6211 2920.81,89.3203 C 2920.81,86.0312 2924.35,86.0312 2925.1,86.0312 C 2928.64,86.0312 2928.89,87.3008 2929.65,90.0781 C 2936.22,111.859 2947.34,120.98 2956.69,120.98 C 2960.73,120.98 2963.01,118.941 2963.01,112.109 C 2963.01,106.289 2961.46,102.5 2955.02,86.8203"
             style="fill:#000000;fill-opacity:1;fill-rule:nonzero;stroke:none"
             id="path2456" /></g></g></g></g></svg>