<?xml version="1.0" encoding="UTF-8" standalone="no"?>
<!-- Created with Inkscape (http://www.inkscape.org/) -->
<svg
   xmlns:dc="http://purl.org/dc/elements/1.1/"
   xmlns:cc="http://creativecommons.org/ns#"
   xmlns:rdf="http://www.w3.org/1999/02/22-rdf-syntax-ns#"
   xmlns:svg="http://www.w3.org/2000/svg"
   xmlns="http://www.w3.org/2000/svg"
   xmlns:sodipodi="http://sodipodi.sourceforge.net/DTD/sodipodi-0.dtd"
   xmlns:inkscape="http://www.inkscape.org/namespaces/inkscape"
   width="630"
   height="450"
   id="svg2"
   sodipodi:version="0.32"
   inkscape:version="0.46"
   version="1.0"
   sodipodi:docname="timevolve-1.svg"
   inkscape:output_extension="org.inkscape.output.svg.inkscape">
  <sodipodi:namedview
     id="base"
     pagecolor="#ffffff"
     bordercolor="#666666"
     borderopacity="1.0"
     gridtolerance="10000"
     guidetolerance="10"
     objecttolerance="10"
     inkscape:pageopacity="0.0"
     inkscape:pageshadow="2"
     inkscape:zoom="0.92866691"
     inkscape:cx="487.28996"
     inkscape:cy="224.99998"
     inkscape:document-units="px"
     inkscape:current-layer="layer1"
     showgrid="true"
     units="in"
     inkscape:window-width="1292"
     inkscape:window-height="786"
     inkscape:window-x="148"
     inkscape:window-y="22"
     showguides="true"
     inkscape:guide-bbox="true">
    <inkscape:grid
       enabled="true"
       visible="true"
       id="grid2383"
       type="xygrid" />
  </sodipodi:namedview>
  <defs
     id="defs4">
    <marker
       inkscape:stockid="Arrow2Mend"
       orient="auto"
       refY="0.0"
       refX="0.0"
       id="Arrow2Mend"
       style="overflow:visible;">
      <path
         id="path4926"
         style="font-size:12.0;fill-rule:evenodd;stroke-width:0.62500000;stroke-linejoin:round;"
         d="M 8.7185878,4.0337352 L -2.2072895,0.016013256 L 8.7185884,-4.0017078 C 6.9730900,-1.6296469 6.9831476,1.6157441 8.7185878,4.0337352 z "
         transform="scale(0.6) rotate(180) translate(0,0)" />
    </marker>
    <marker
       inkscape:stockid="Arrow1Sstart"
       orient="auto"
       refY="0.0"
       refX="0.0"
       id="Arrow1Sstart"
       style="overflow:visible">
      <path
         id="path4911"
         d="M 0.0,0.0 L 5.0,-5.0 L -12.5,0.0 L 5.0,5.0 L 0.0,0.0 z "
         style="fill-rule:evenodd;stroke:#000000;stroke-width:1.0pt;marker-start:none"
         transform="scale(0.2) translate(6,0)" />
    </marker>
    <clipPath
       id="clipPath2963"
       clipPathUnits="userSpaceOnUse">
      <path
         id="path2965"
         d="M 0,0 L 9900,0 L 9900,1140 L 0,1140 L 0,0 z" />
    </clipPath>
    <clipPath
       id="clipPath3273"
       clipPathUnits="userSpaceOnUse">
      <path
         id="path3275"
         d="M 0,0 L 490,0 L 490,420 L 0,420 L 0,0 z" />
    </clipPath>
    <clipPath
       id="clipPath3364"
       clipPathUnits="userSpaceOnUse">
      <path
         id="path3366"
         d="M 0,0 L 590,0 L 590,520 L 0,520 L 0,0 z" />
    </clipPath>
    <clipPath
       id="clipPath3444"
       clipPathUnits="userSpaceOnUse">
      <path
         id="path3446"
         d="M 0,0 L 590,0 L 590,490 L 0,490 L 0,0 z" />
    </clipPath>
    <clipPath
       id="clipPath3484"
       clipPathUnits="userSpaceOnUse">
      <path
         id="path3486"
         d="M 0,0 L 490,0 L 490,470 L 0,470 L 0,0 z" />
    </clipPath>
    <marker
       style="overflow:visible;"
       id="Arrow1Lend"
       refX="0.0"
       refY="0.0"
       orient="auto"
       inkscape:stockid="Arrow1Lend">
      <path
         transform="scale(0.8) rotate(180) translate(12.5,0)"
         style="fill-rule:evenodd;stroke:#000000;stroke-width:1.0pt;marker-start:none;"
         d="M 0.0,0.0 L 5.0,-5.0 L -12.5,0.0 L 5.0,5.0 L 0.0,0.0 z "
         id="path4902" />
    </marker>
    <marker
       style="overflow:visible"
       id="Arrow1Lstart"
       refX="0.0"
       refY="0.0"
       orient="auto"
       inkscape:stockid="Arrow1Lstart">
      <path
         transform="scale(0.8) translate(12.5,0)"
         style="fill-rule:evenodd;stroke:#000000;stroke-width:1.0pt;marker-start:none"
         d="M 0.0,0.0 L 5.0,-5.0 L -12.5,0.0 L 5.0,5.0 L 0.0,0.0 z "
         id="path4899" />
    </marker>
    <clipPath
       clipPathUnits="userSpaceOnUse"
       id="clipPath3324">
      <path
         d="M 0,0 L 540,0 L 540,580 L 0,580 L 0,0 z"
         id="path3326" />
    </clipPath>
    <marker
       style="overflow:visible"
       id="DotL"
       refX="0.0"
       refY="0.0"
       orient="auto"
       inkscape:stockid="DotL">
      <path
         transform="scale(0.8) translate(7.4, 1)"
         style="fill-rule:evenodd;stroke:#000000;stroke-width:1.0pt;marker-start:none;marker-end:none"
         d="M -2.5,-1.0 C -2.5,1.7600000 -4.7400000,4.0 -7.5,4.0 C -10.260000,4.0 -12.5,1.7600000 -12.5,-1.0 C -12.5,-3.7600000 -10.260000,-6.0 -7.5,-6.0 C -4.7400000,-6.0 -2.5,-3.7600000 -2.5,-1.0 z "
         id="path3500" />
    </marker>
    <marker
       style="overflow:visible;"
       id="Arrow1Mend"
       refX="0.0"
       refY="0.0"
       orient="auto"
       inkscape:stockid="Arrow1Mend">
      <path
         transform="scale(0.4) rotate(180) translate(10,0)"
         style="fill-rule:evenodd;stroke:#000000;stroke-width:1.0pt;marker-start:none;"
         d="M 0.0,0.0 L 5.0,-5.0 L -12.5,0.0 L 5.0,5.0 L 0.0,0.0 z "
         id="path64438" />
    </marker>
    <linearGradient
       id="linearGradient3830">
      <stop
         id="stop3832"
         offset="0"
         style="stop-color:#000000;stop-opacity:1;" />
      <stop
         id="stop3834"
         offset="1"
         style="stop-color:#ffffff;stop-opacity:1;" />
    </linearGradient>
    <inkscape:perspective
       id="perspective10"
       inkscape:persp3d-origin="372.04724 : 350.78739 : 1"
       inkscape:vp_z="744.09448 : 526.18109 : 1"
       inkscape:vp_y="0 : 1000 : 0"
       inkscape:vp_x="0 : 526.18109 : 1"
       sodipodi:type="inkscape:persp3d" />
    <marker
       style="overflow:visible"
       id="Arrow1LstartJ"
       refX="0.0"
       refY="0.0"
       orient="auto"
       inkscape:stockid="Arrow1LstartJ">
      <path
         transform="scale(0.8) translate(12.5,0)"
         style="marker-start:none;stroke:#be3570;stroke-width:1.0pt;fill:#be3570;fill-rule:evenodd"
         d="M 0.0,0.0 L 5.0,-5.0 L -12.5,0.0 L 5.0,5.0 L 0.0,0.0 z "
         id="path6930" />
    </marker>
    <marker
       style="overflow:visible;"
       id="Arrow1LendM"
       refX="0.0"
       refY="0.0"
       orient="auto"
       inkscape:stockid="Arrow1LendM">
      <path
         transform="scale(0.8) rotate(180) translate(12.5,0)"
         style="marker-start:none;stroke:#be3570;stroke-width:1.0pt;fill:#be3570;fill-rule:evenodd"
         d="M 0.0,0.0 L 5.0,-5.0 L -12.5,0.0 L 5.0,5.0 L 0.0,0.0 z "
         id="path6933" />
    </marker>
    <clipPath
       id="clipPath7544"
       clipPathUnits="userSpaceOnUse">
      <path
         id="path7546"
         d="M 0,0 L 306,0 L 306,124 L 0,124 L 0,0 z" />
    </clipPath>
    <inkscape:perspective
       id="perspective7534"
       inkscape:persp3d-origin="372.04724 : 350.78739 : 1"
       inkscape:vp_z="744.09448 : 526.18109 : 1"
       inkscape:vp_y="0 : 1000 : 0"
       inkscape:vp_x="0 : 526.18109 : 1"
       sodipodi:type="inkscape:persp3d" />
    <clipPath
       id="clipPath7640"
       clipPathUnits="userSpaceOnUse">
      <path
         id="path7642"
         d="M 0,0 L 3080,0 L 3080,1230 L 0,1230 L 0,0 z" />
    </clipPath>
    <inkscape:perspective
       id="perspective7630"
       inkscape:persp3d-origin="372.04724 : 350.78739 : 1"
       inkscape:vp_z="744.09448 : 526.18109 : 1"
       inkscape:vp_y="0 : 1000 : 0"
       inkscape:vp_x="0 : 526.18109 : 1"
       sodipodi:type="inkscape:persp3d" />
    <clipPath
       id="clipPath7734"
       clipPathUnits="userSpaceOnUse">
      <path
         id="path7736"
         d="M 0,0 L 2460,0 L 2460,990 L 0,990 L 0,0 z" />
    </clipPath>
    <inkscape:perspective
       id="perspective7724"
       inkscape:persp3d-origin="372.04724 : 350.78739 : 1"
       inkscape:vp_z="744.09448 : 526.18109 : 1"
       inkscape:vp_y="0 : 1000 : 0"
       inkscape:vp_x="0 : 526.18109 : 1"
       sodipodi:type="inkscape:persp3d" />
    <clipPath
       id="clipPath7913"
       clipPathUnits="userSpaceOnUse">
      <path
         id="path7915"
         d="M 0,0 L 2460,0 L 2460,990 L 0,990 L 0,0 z" />
    </clipPath>
    <inkscape:perspective
       id="perspective7903"
       inkscape:persp3d-origin="372.04724 : 350.78739 : 1"
       inkscape:vp_z="744.09448 : 526.18109 : 1"
       inkscape:vp_y="0 : 1000 : 0"
       inkscape:vp_x="0 : 526.18109 : 1"
       sodipodi:type="inkscape:persp3d" />
    <clipPath
       id="clipPath8757"
       clipPathUnits="userSpaceOnUse">
      <path
         id="path8759"
         d="M 0,0 L 2460,0 L 2460,930 L 0,930 L 0,0 z" />
    </clipPath>
    <inkscape:perspective
       id="perspective8747"
       inkscape:persp3d-origin="372.04724 : 350.78739 : 1"
       inkscape:vp_z="744.09448 : 526.18109 : 1"
       inkscape:vp_y="0 : 1000 : 0"
       inkscape:vp_x="0 : 526.18109 : 1"
       sodipodi:type="inkscape:persp3d" />
    <clipPath
       id="clipPath26611"
       clipPathUnits="userSpaceOnUse">
      <path
         id="path26613"
         d="M 0,0 L 240,0 L 240,44 L 0,44 L 0,0 z" />
    </clipPath>
    <inkscape:perspective
       id="perspective26601"
       inkscape:persp3d-origin="372.04724 : 350.78739 : 1"
       inkscape:vp_z="744.09448 : 526.18109 : 1"
       inkscape:vp_y="0 : 1000 : 0"
       inkscape:vp_x="0 : 526.18109 : 1"
       sodipodi:type="inkscape:persp3d" />
    <clipPath
       id="clipPath26726"
       clipPathUnits="userSpaceOnUse">
      <path
         id="path26728"
         d="M 0,0 L 2400,0 L 2400,440 L 0,440 L 0,0 z" />
    </clipPath>
    <inkscape:perspective
       id="perspective26716"
       inkscape:persp3d-origin="372.04724 : 350.78739 : 1"
       inkscape:vp_z="744.09448 : 526.18109 : 1"
       inkscape:vp_y="0 : 1000 : 0"
       inkscape:vp_x="0 : 526.18109 : 1"
       sodipodi:type="inkscape:persp3d" />
  </defs>
  <metadata
     id="metadata7">
    <rdf:RDF>
      <cc:Work
         rdf:about="">
        <dc:format>image/svg+xml</dc:format>
        <dc:type
           rdf:resource="http://purl.org/dc/dcmitype/StillImage" />
      </cc:Work>
    </rdf:RDF>
  </metadata>
  <g
     id="layer1"
     inkscape:groupmode="layer"
     inkscape:label="Layer 1">
    <path
       id="path21723"
       d="M 80,330 L 80,290"
       style="fill:none;fill-opacity:0.75;fill-rule:evenodd;stroke:#000000;stroke-width:1px;stroke-linecap:butt;stroke-linejoin:miter;marker-start:none;marker-mid:none;marker-end:none;stroke-opacity:1" />
    <path
       id="path21725"
       d="M 200,330 L 200,290"
       style="fill:none;fill-opacity:0.75;fill-rule:evenodd;stroke:#000000;stroke-width:1px;stroke-linecap:butt;stroke-linejoin:miter;marker-start:none;marker-mid:none;marker-end:none;stroke-opacity:1" />
    <path
       id="path21727"
       d="M 320,330 L 320,290"
       style="fill:none;fill-opacity:0.75;fill-rule:evenodd;stroke:#000000;stroke-width:1px;stroke-linecap:butt;stroke-linejoin:miter;marker-start:none;marker-mid:none;marker-end:none;stroke-opacity:1" />
    <path
       id="path21729"
       d="M 440,330 L 440,290"
       style="fill:none;fill-opacity:0.75;fill-rule:evenodd;stroke:#000000;stroke-width:1px;stroke-linecap:butt;stroke-linejoin:miter;stroke-opacity:1" />
    <path
       style="fill:none;fill-opacity:0.75;fill-rule:evenodd;stroke:#000000;stroke-width:1px;stroke-linecap:butt;stroke-linejoin:miter;marker-start:none;marker-mid:none;marker-end:none;stroke-opacity:1"
       d="M 440,330 L 440,290"
       id="path21731" />
    <path
       id="path21733"
       d="M 560,330 L 560,290"
       style="fill:none;fill-opacity:0.75;fill-rule:evenodd;stroke:#000000;stroke-width:1px;stroke-linecap:butt;stroke-linejoin:miter;marker-start:none;marker-mid:none;marker-end:none;stroke-opacity:1" />
    <rect
       style="opacity:1;fill:none;fill-opacity:1;fill-rule:nonzero;stroke:#000000;stroke-width:1;stroke-linecap:round;marker:none;marker-start:none;marker-mid:none;marker-end:none;stroke-miterlimit:4;stroke-dasharray:none;stroke-dashoffset:0;stroke-opacity:1;visibility:visible;display:inline;overflow:visible;enable-background:accumulate"
       id="rect5637"
       width="560"
       height="80"
       x="40"
       y="210" />
    <rect
       style="opacity:1;fill:none;fill-opacity:1;fill-rule:nonzero;stroke:#000000;stroke-width:1;stroke-linecap:round;marker:none;marker-start:none;marker-mid:none;marker-end:none;stroke-miterlimit:4;stroke-dasharray:none;stroke-dashoffset:0;stroke-opacity:1;visibility:visible;display:inline;overflow:visible;enable-background:accumulate"
       id="rect13933"
       width="80"
       height="80"
       x="40"
       y="330" />
    <rect
       y="330"
       x="160"
       height="80"
       width="80"
       id="rect13935"
       style="opacity:1;fill:none;fill-opacity:1;fill-rule:nonzero;stroke:#000000;stroke-width:1;stroke-linecap:round;marker:none;marker-start:none;marker-mid:none;marker-end:none;stroke-miterlimit:4;stroke-dasharray:none;stroke-dashoffset:0;stroke-opacity:1;visibility:visible;display:inline;overflow:visible;enable-background:accumulate" />
    <rect
       style="opacity:1;fill:none;fill-opacity:1;fill-rule:nonzero;stroke:#000000;stroke-width:1;stroke-linecap:round;marker:none;marker-start:none;marker-mid:none;marker-end:none;stroke-miterlimit:4;stroke-dasharray:none;stroke-dashoffset:0;stroke-opacity:1;visibility:visible;display:inline;overflow:visible;enable-background:accumulate"
       id="rect13937"
       width="80"
       height="80"
       x="280"
       y="330" />
    <rect
       y="330"
       x="400"
       height="80"
       width="80"
       id="rect13939"
       style="opacity:1;fill:none;fill-opacity:1;fill-rule:nonzero;stroke:#000000;stroke-width:1;stroke-linecap:round;marker:none;marker-start:none;marker-mid:none;marker-end:none;stroke-miterlimit:4;stroke-dasharray:none;stroke-dashoffset:0;stroke-opacity:1;visibility:visible;display:inline;overflow:visible;enable-background:accumulate" />
    <rect
       style="opacity:1;fill:none;fill-opacity:1;fill-rule:nonzero;stroke:#000000;stroke-width:1;stroke-linecap:round;marker:none;marker-start:none;marker-mid:none;marker-end:none;stroke-miterlimit:4;stroke-dasharray:none;stroke-dashoffset:0;stroke-opacity:1;visibility:visible;display:inline;overflow:visible;enable-background:accumulate"
       id="rect13941"
       width="80"
       height="80"
       x="520"
       y="330" />
    <path
       style="fill:none;fill-opacity:0.75;fill-rule:evenodd;stroke:#000000;stroke-width:1px;stroke-linecap:butt;stroke-linejoin:miter;stroke-opacity:1"
       d="M 120,370 L 160,370"
       id="path13943" />
    <path
       style="fill:none;fill-opacity:0.75;fill-rule:evenodd;stroke:#000000;stroke-width:1px;stroke-linecap:butt;stroke-linejoin:miter;stroke-opacity:1"
       d="M 240,370 L 280,370"
       id="path13945" />
    <path
       style="fill:none;fill-opacity:0.75;fill-rule:evenodd;stroke:#000000;stroke-width:1px;stroke-linecap:butt;stroke-linejoin:miter;stroke-opacity:1"
       d="M 360,370 L 400,370"
       id="path13947" />
    <path
       style="fill:none;fill-opacity:0.75;fill-rule:evenodd;stroke:#000000;stroke-width:1px;stroke-linecap:butt;stroke-linejoin:miter;stroke-opacity:1"
       d="M 480,370 L 520,370"
       id="path13949" />
    <text
       xml:space="preserve"
       style="font-size:52px;font-style:italic;font-variant:normal;font-weight:normal;font-stretch:normal;text-align:center;line-height:100%;writing-mode:lr-tb;text-anchor:middle;opacity:1;fill:#000000;fill-opacity:1;fill-rule:nonzero;stroke:none;stroke-width:1px;stroke-linecap:butt;stroke-linejoin:miter;marker:none;marker-start:none;marker-mid:none;marker-end:none;stroke-miterlimit:4;stroke-dasharray:none;stroke-dashoffset:0;stroke-opacity:1;visibility:visible;display:inline;overflow:visible;enable-background:accumulate;font-family:Times;-inkscape-font-specification:Times Italic"
       x="79.894531"
       y="388"
       id="text13963"
       sodipodi:linespacing="100%"><tspan
         sodipodi:role="line"
         id="tspan13965"
         x="79.894531"
         y="388">A</tspan></text>
    <text
       sodipodi:linespacing="100%"
       id="text13967"
       y="388"
       x="199.89453"
       style="font-size:52px;font-style:italic;font-variant:normal;font-weight:normal;font-stretch:normal;text-align:center;line-height:100%;writing-mode:lr-tb;text-anchor:middle;opacity:1;fill:#000000;fill-opacity:1;fill-rule:nonzero;stroke:none;stroke-width:1px;stroke-linecap:butt;stroke-linejoin:miter;marker:none;marker-start:none;marker-mid:none;marker-end:none;stroke-miterlimit:4;stroke-dasharray:none;stroke-dashoffset:0;stroke-opacity:1;visibility:visible;display:inline;overflow:visible;enable-background:accumulate;font-family:Times;-inkscape-font-specification:Times Italic"
       xml:space="preserve"><tspan
         y="388"
         x="199.89453"
         id="tspan13969"
         sodipodi:role="line">B</tspan></text>
    <text
       xml:space="preserve"
       style="font-size:52px;font-style:italic;font-variant:normal;font-weight:normal;font-stretch:normal;text-align:center;line-height:100%;writing-mode:lr-tb;text-anchor:middle;opacity:1;fill:#000000;fill-opacity:1;fill-rule:nonzero;stroke:none;stroke-width:1px;stroke-linecap:butt;stroke-linejoin:miter;marker:none;marker-start:none;marker-mid:none;marker-end:none;stroke-miterlimit:4;stroke-dasharray:none;stroke-dashoffset:0;stroke-opacity:1;visibility:visible;display:inline;overflow:visible;enable-background:accumulate;font-family:Times;-inkscape-font-specification:Times Italic"
       x="319.89453"
       y="388"
       id="text13971"
       sodipodi:linespacing="100%"><tspan
         sodipodi:role="line"
         id="tspan13973"
         x="319.89453"
         y="388">C</tspan></text>
    <text
       sodipodi:linespacing="100%"
       id="text13975"
       y="388"
       x="439.89453"
       style="font-size:52px;font-style:italic;font-variant:normal;font-weight:normal;font-stretch:normal;text-align:center;line-height:100%;writing-mode:lr-tb;text-anchor:middle;opacity:1;fill:#000000;fill-opacity:1;fill-rule:nonzero;stroke:none;stroke-width:1px;stroke-linecap:butt;stroke-linejoin:miter;marker:none;marker-start:none;marker-mid:none;marker-end:none;stroke-miterlimit:4;stroke-dasharray:none;stroke-dashoffset:0;stroke-opacity:1;visibility:visible;display:inline;overflow:visible;enable-background:accumulate;font-family:Times;-inkscape-font-specification:Times Italic"
       xml:space="preserve"><tspan
         y="388"
         x="439.89453"
         id="tspan13977"
         sodipodi:role="line">D</tspan></text>
    <text
       xml:space="preserve"
       style="font-size:52px;font-style:italic;font-variant:normal;font-weight:normal;font-stretch:normal;text-align:center;line-height:100%;writing-mode:lr-tb;text-anchor:middle;opacity:1;fill:#000000;fill-opacity:1;fill-rule:nonzero;stroke:none;stroke-width:1px;stroke-linecap:butt;stroke-linejoin:miter;marker:none;marker-start:none;marker-mid:none;marker-end:none;stroke-miterlimit:4;stroke-dasharray:none;stroke-dashoffset:0;stroke-opacity:1;visibility:visible;display:inline;overflow:visible;enable-background:accumulate;font-family:Times;-inkscape-font-specification:Times Italic"
       x="559.89453"
       y="388"
       id="text13979"
       sodipodi:linespacing="100%"><tspan
         sodipodi:role="line"
         id="tspan13981"
         x="559.89453"
         y="388">E</tspan></text>
    <path
       id="path17159"
       d="M 80,210 L 80,170"
       style="fill:none;fill-opacity:0.75;fill-rule:evenodd;stroke:#000000;stroke-width:1px;stroke-linecap:butt;stroke-linejoin:miter;marker-start:none;marker-mid:none;marker-end:url(#Arrow1Lend);stroke-opacity:1" />
    <path
       id="path17161"
       d="M 200,210 L 200,170"
       style="fill:none;fill-opacity:0.75;fill-rule:evenodd;stroke:#000000;stroke-width:1px;stroke-linecap:butt;stroke-linejoin:miter;marker-start:none;marker-mid:none;marker-end:url(#Arrow1Lend);stroke-opacity:1" />
    <path
       id="path17163"
       d="M 320,210 L 320,170"
       style="fill:none;fill-opacity:0.75;fill-rule:evenodd;stroke:#000000;stroke-width:1px;stroke-linecap:butt;stroke-linejoin:miter;marker-start:none;marker-mid:none;marker-end:url(#Arrow1Lend);stroke-opacity:1" />
    <path
       id="path17165"
       d="M 440,210 L 440,170"
       style="fill:none;fill-opacity:0.75;fill-rule:evenodd;stroke:#000000;stroke-width:1px;stroke-linecap:butt;stroke-linejoin:miter;marker-end:url(#Arrow1Lend);stroke-opacity:1" />
    <path
       style="fill:none;fill-opacity:0.75;fill-rule:evenodd;stroke:#000000;stroke-width:1px;stroke-linecap:butt;stroke-linejoin:miter;marker-start:none;marker-mid:none;marker-end:url(#Arrow1Lend);stroke-opacity:1"
       d="M 440,210 L 440,170"
       id="path17167" />
    <path
       id="path17169"
       d="M 560,210 L 560,170"
       style="fill:none;fill-opacity:0.75;fill-rule:evenodd;stroke:#000000;stroke-width:1px;stroke-linecap:butt;stroke-linejoin:miter;marker-start:none;marker-mid:none;marker-end:url(#Arrow1Lend);stroke-opacity:1" />
    <g
       transform="matrix(1.25,0,0,-1.25,169.60013,276.3765)"
       inkscape:label="unitary"
       id="g26718">
      <g
         transform="scale(0.1,0.1)"
         id="g26720">
        <g
           id="g26722">
          <g
             clip-path="url(#clipPath26726)"
             id="g26724">
            <path
               id="path26730"
               style="fill:#000000;fill-opacity:1;fill-rule:nonzero;stroke:none"
               d="M 213.711,311.398 C 217.301,326.121 223.75,336.891 252.441,338.012 C 254.23,338.012 258.57,338.359 258.57,345.102 C 258.57,345.461 258.57,349.012 253.91,349.012 C 242.07,349.012 229.52,347.941 217.328,347.941 C 205.129,347.941 191.871,349.012 180.031,349.012 C 177.879,349.012 173.57,349.012 173.57,341.91 C 173.57,338.012 177.16,338.012 180.031,338.012 C 200.48,337.602 204.422,330.059 204.422,322.148 C 204.422,321.07 203.699,315.691 203.34,314.609 L 171.059,186.379 C 158.859,138.25 117.621,107 81.7617,107 C 57.3711,107 38,122.801 38,153.691 C 38,154.41 38,165.898 41.9492,181.711 L 76.7383,321.43 C 79.9688,334.359 80.6914,338 106.871,338 C 116.191,338 119.07,338 119.07,345.09 C 119.07,349 115.109,349 114.039,349 C 103.988,349 78.1719,347.93 68.1211,347.93 C 57.7109,347.93 32.25,349 21.8398,349 C 18.9688,349 15.0195,349 15.0195,341.898 C 15.0195,338 18.25,338 25.0703,338 C 25.7891,338 32.6016,338 38.6992,337.25 C 45.1602,336.531 48.3789,336.172 48.3789,331.5 C 48.3789,329.352 44.4297,314.27 42.2812,306.012 L 34.3906,274.422 C 31.1602,260.422 13.9414,192.57 12.5117,185.738 C 10,175.691 10,170.301 10,164.922 C 10,121.121 42.6406,95.9883 80.3008,95.9883 C 125.488,95.9883 169.961,136.559 181.801,183.949" />
            <path
               id="path26732"
               style="fill:#000000;fill-opacity:1;fill-rule:nonzero;stroke:none"
               d="M 388.711,17.5898 C 388.711,18.6602 388.711,19.3789 382.57,25.4805 C 337.52,70.6992 325.988,138.539 325.988,193.449 C 325.988,255.898 339.691,318.359 384.012,363.219 C 388.711,367.52 388.711,368.238 388.711,369.32 C 388.711,371.828 387.262,372.98 385.09,372.98 C 381.48,372.98 349.012,348.5 327.719,302.91 C 309.309,263.43 304.988,223.59 304.988,193.441 C 304.988,165.449 308.961,122.02 328.809,81.4609 C 350.461,37.3086 381.488,13.9805 385.102,13.9805 C 387.27,13.9805 388.719,15.0586 388.719,17.5703" />
            <path
               id="path26734"
               style="fill:#000000;fill-opacity:1;fill-rule:nonzero;stroke:none"
               d="M 567.801,354.52 C 565.281,359.18 564.57,360.988 558.461,360.988 C 552.352,360.988 551.641,359.18 549.121,354.52 L 427.719,111.172 C 425.93,107.941 425.93,107.219 425.93,106.871 C 425.93,104 428.078,104 433.828,104 L 683.102,104 C 688.852,104 691.012,104 691.012,106.871 C 691.012,107.23 691.012,107.949 689.211,111.172 L 567.801,354.52 z M 546.719,324.93 L 643.199,131.012 L 449.891,131.012" />
            <path
               id="path26736"
               style="fill:#000000;fill-opacity:1;fill-rule:nonzero;stroke:none"
               d="M 782.379,248 L 815.719,248 C 822.809,248 826.359,248 826.359,255.102 C 826.359,259 822.77,259 816.32,259 L 784.762,259 C 797.672,309.949 799.461,317.129 799.461,319.289 C 799.461,325.391 795.16,328.988 789.059,328.988 C 787.988,328.988 777.941,328.621 774.719,316.059 L 760.73,259.012 L 727.02,259.012 C 719.852,259.012 716.262,259.012 716.262,252.27 C 716.262,248.012 719.129,248.012 726.301,248.012 L 757.859,248.012 C 732.422,145.738 731.012,139.621 731.012,133.141 C 731.012,113.691 744.57,100.02 763.852,100.02 C 800.262,100.02 820.629,152.422 820.629,155.289 C 820.629,158.879 817.789,158.879 816.371,158.879 C 813.18,158.879 812.828,157.801 811.051,153.859 C 795.82,116.621 777.039,108.02 765,108.02 C 757.559,108.02 754.02,112.699 754.02,124.57 C 754.02,133.199 754.73,135.719 756.148,141.84" />
            <path
               id="path26738"
               style="fill:#000000;fill-opacity:1;fill-rule:nonzero;stroke:none"
               d="M 941.988,193.461 C 941.988,221.461 938.02,264.891 918.211,305.441 C 896.609,349.578 865.641,372.988 862.039,372.988 C 859.879,372.988 858.441,371.48 858.441,369.328 C 858.441,368.25 858.441,367.531 865.27,361.078 C 900.488,325.539 920.98,268.48 920.98,193.461 C 920.98,132.09 907.672,68.9219 863.109,23.6914 C 858.441,19.3789 858.441,18.6602 858.441,17.5898 C 858.441,15.4297 859.879,14 862.039,14 C 865.641,14 898.051,38.4102 919.289,83.9883 C 937.648,123.469 941.988,163.309 941.988,193.461" />
            <path
               id="path26740"
               style="fill:#000000;fill-opacity:1;fill-rule:nonzero;stroke:none"
               d="M 1322.86,220.988 C 1328.23,220.988 1335.07,220.988 1335.07,227.988 C 1335.07,234.988 1328.23,234.988 1323.22,234.988 L 1108.81,234.988 C 1103.8,234.988 1097,234.988 1097,227.988 C 1097,220.988 1103.8,220.988 1109.17,220.988 L 1322.86,220.988 z M 1323.22,151.988 C 1328.23,151.988 1335.07,151.988 1335.07,158.988 C 1335.07,165.988 1328.23,165.988 1322.86,165.988 L 1109.16,165.988 C 1103.79,165.988 1096.99,165.988 1096.99,158.988 C 1096.99,151.988 1103.79,151.988 1108.8,151.988" />
            <path
               id="path26742"
               style="fill:#000000;fill-opacity:1;fill-rule:nonzero;stroke:none"
               d="M 1521.86,187.012 C 1532.31,187.012 1558.96,187.699 1576.97,195.012 C 1602.19,205.859 1604,227.199 1604,232.262 C 1604,248.172 1590.29,263 1565.42,263 C 1525.41,263 1470.99,228.07 1470.99,165.121 C 1470.99,128.43 1492.22,100.012 1527.49,100.012 C 1578.95,100.012 1609.21,138.051 1609.21,142.359 C 1609.21,144.512 1607.04,147.039 1604.88,147.039 C 1603.08,147.039 1602.36,146.309 1600.21,143.449 C 1571.8,108.012 1532.6,108.012 1528.28,108.012 C 1500.23,108.012 1496.99,138.172 1496.99,149.648 C 1496.99,153.961 1497.35,165.09 1502.75,187 L 1521.86,187.012 z M 1505.21,195.012 C 1519.2,249.609 1556.14,254.988 1565.46,254.988 C 1582.32,254.988 1592,244.57 1592,232.359 C 1592,195 1534.62,195 1519.91,195" />
            <path
               id="path26744"
               style="fill:#000000;fill-opacity:1;fill-rule:nonzero;stroke:none"
               d="M 1703.34,408.609 C 1703.34,412.57 1700.32,418.012 1693.3,418.012 C 1686.52,418.012 1679.24,411.578 1679.24,404.398 C 1679.24,400.199 1682.5,395 1689.28,395 C 1696.56,395 1703.34,401.93 1703.34,408.609 z M 1652.25,281.121 C 1651.25,277.828 1650,274.801 1650,270.5 C 1650,258.609 1660.02,249 1673.79,249 C 1698.83,249 1709.87,284.039 1709.87,287.852 C 1709.87,291.16 1706.58,291.16 1705.83,291.16 C 1702.3,291.16 1702.05,289.621 1701.04,286.82 C 1695.24,266.441 1684.15,256 1674.31,256 C 1669.27,256 1668.01,259.289 1668.01,264.852 C 1668.01,270.672 1669.78,275.469 1672.05,281.039 C 1674.57,287.871 1677.35,294.699 1680.13,301.27 C 1682.4,307.34 1691.49,330.352 1692.5,333.391 C 1693.26,335.922 1694.02,338.949 1694.02,341.48 C 1694.02,353.359 1683.97,363 1670.18,363 C 1645.35,363 1633.81,328.621 1633.81,324.32 C 1633.81,321.031 1637.35,321.031 1638.1,321.031 C 1641.64,321.031 1641.89,322.301 1642.65,325.078 C 1649.22,346.859 1660.34,355.98 1669.69,355.98 C 1673.73,355.98 1676.01,353.941 1676.01,347.109 C 1676.01,341.289 1674.46,337.5 1668.02,321.82" />
            <path
               id="path26746"
               style="fill:#000000;fill-opacity:1;fill-rule:nonzero;stroke:none"
               d="M 1935.14,402.719 C 1937.4,411.988 1937.9,414 1956.48,414 C 1962,414 1965.02,414 1965.02,419.5 C 1965.02,420.5 1964.27,423 1961,423 C 1953.72,423 1935.39,422 1928.11,422 C 1923.84,422 1915.06,422 1910.79,422.25 C 1905.77,422.5 1899.74,423 1894.97,423 C 1893.47,423 1889.7,423 1889.7,417.5 C 1889.7,414 1892.71,414 1897.73,414 C 1897.98,414 1902.75,414 1907.27,413.488 C 1912.54,412.988 1913.05,412.5 1913.05,410.02 C 1913.05,409.77 1913.05,408.281 1912.05,404.559 L 1897.24,346.012 L 1813.13,346.012 L 1827.69,403.57 C 1829.95,412.012 1830.45,414 1849.78,414 C 1854.05,414 1857.31,414 1857.31,419.5 C 1857.31,420.5 1856.56,423 1853.29,423 C 1846.01,423 1827.68,422 1820.4,422 C 1816.13,422 1807.35,422 1803.08,422.25 C 1798.06,422.5 1792.03,423 1787.26,423 C 1785.76,423 1781.99,423 1781.99,417.5 C 1781.99,414 1785.01,414 1790.03,414 C 1790.28,414 1795.05,414 1799.57,413.48 C 1804.84,412.98 1805.35,412.48 1805.35,409.98 C 1805.35,409.48 1805.35,408.23 1804.35,404.469 L 1770.96,271.52 C 1768.95,263 1768.45,261 1748.87,261 C 1744.6,261 1741.34,261 1741.34,255.75 C 1741.34,253.25 1743.1,252 1745.36,252 C 1752.64,252 1770.72,253 1778,253 C 1782.27,253 1791.05,253 1795.32,252.75 C 1800.34,252.5 1806.62,252 1811.39,252 C 1812.64,252 1816.66,252 1816.66,257.25 C 1816.66,261 1814.15,261 1808.37,261 C 1804.35,261 1803.35,261 1798.83,261.5 C 1793.31,262.262 1793.31,262.762 1793.31,265.289 C 1793.31,265.539 1793.31,267.059 1794.31,270.84 L 1810.88,337 L 1894.98,337 L 1878.66,271.602 C 1876.65,263.02 1876.15,261 1856.57,261 C 1852.3,261 1849.04,261 1849.04,255.75 C 1849.04,253.25 1850.8,252 1853.06,252 C 1860.34,252 1878.42,253 1885.7,253 C 1889.97,253 1898.75,253 1903.02,252.75 C 1908.04,252.5 1914.32,252 1919.09,252 C 1920.35,252 1924.36,252 1924.36,257.25 C 1924.36,261 1921.85,261 1916.07,261 C 1912.05,261 1911.05,261 1906.53,261.5 C 1901.01,262.25 1901.01,262.75 1901.01,265.25 C 1901.01,266.75 1901.76,269.262 1902.01,270.762" />
            <path
               id="path26748"
               style="fill:#000000;fill-opacity:1;fill-rule:nonzero;stroke:none"
               d="M 2035,314.379 C 2035,323.211 2027.94,329.012 2020.62,329.012 C 2011.79,329.012 2005.99,321.941 2005.99,314.629 C 2005.99,305.809 2013.05,300.012 2020.37,300.012 C 2029.2,300.012 2035,307.07 2035,314.391" />
            <path
               id="path26750"
               style="fill:#000000;fill-opacity:1;fill-rule:nonzero;stroke:none"
               d="M 2188.78,425.23 C 2186.27,429.75 2185.51,431 2180.49,431 C 2177.47,431 2174.97,430.211 2172.7,426 L 2080.06,258.02 C 2078.31,255.262 2078.31,254.762 2078.31,254.512 C 2078.31,252 2080.32,252 2084.33,252 L 2276.89,252 C 2280.91,252 2282.92,252 2282.92,254.512 C 2282.92,254.762 2282.92,255.262 2281.16,258.02 L 2188.78,425.23 z M 2172.21,406.398 L 2246.02,273.012 L 2098.4,273.012" />
            <path
               id="path26752"
               style="fill:#000000;fill-opacity:1;fill-rule:nonzero;stroke:none"
               d="M 2360.65,351 L 2386.34,351 C 2391.13,351 2394.4,351 2394.4,356.5 C 2394.4,360 2391.13,360 2386.87,360 L 2363.02,360 L 2372.31,397.379 C 2372.56,398.648 2373.06,399.91 2373.06,400.922 C 2373.06,405.469 2369.54,409 2364.52,409 C 2358.24,409 2354.48,404.711 2352.72,398.141 C 2350.96,391.828 2354.23,403.949 2343.18,360 L 2317.57,360 C 2312.8,360 2309.53,360 2309.53,354.5 C 2309.53,351 2312.55,351 2317.06,351 L 2340.91,351 C 2336.05,331.09 2330.93,311.449 2325.82,291.551 C 2324.28,285.262 2321.98,276.191 2321.98,272.922 C 2321.98,258.059 2334.59,249 2348.97,249 C 2376.97,249 2392.87,284.551 2392.87,287.852 C 2392.87,291.16 2389.59,291.16 2388.83,291.16 C 2385.81,291.16 2385.56,290.641 2383.54,286.309 C 2376.49,270.262 2363.65,256 2349.79,256 C 2344.5,256 2340.97,259.281 2340.97,268.34 C 2340.97,270.859 2341.98,276.148 2342.48,278.672" />
          </g>
        </g>
      </g>
    </g>
  </g>
</svg>
